# xmcd
# 
# Track frame offsets:
#     150
#     17740
#     36998
#     53655
#     74303
#     90763
#     112405
#     133385
#     148445
#     166433
# 
# Disc length: 2415
# 
# Revision: 13
# Processed by: cddbd v1.5.2PL0 Copyright (c) Steve Scherf et al.
# Submitted via: BonkEnc v1.0.8
# 
DISCID=95096d0a
DTITLE=Various Artist - Chicago Blues Bash
DYEAR=1992
DGENRE=Blues
TTITLE0=Junior Wells - Good Morning Schoolgirl
TTITLE1=Big Joe Williams - I Done Stopped Hollering
TTITLE2=J B Hutto - Blues Do Me A Favor
TTITLE3=Jimmy Johnson - Poor Boy's Dream
TTITLE4=Big Joe Williams - Jumpin' In The Moonlight
TTITLE5=Junior Wells - Early In The Morning
TTITLE6=Big Joe Williams - Indiana Woman Blues
TTITLE7=J B Hutto - Young Hawks' Crawl
TTITLE8=Jimmy Johnson - Take Five
TTITLE9=Big Joe Williams - You're Gonna Need Big King Jesus
EXTD=
EXTT0=
EXTT1=
EXTT2=
EXTT3=
EXTT4=
EXTT5=
EXTT6=
EXTT7=
EXTT8=
EXTT9=
PLAYORDER=
